<?xml version="1.0" encoding="UTF-8"?>
<svg id="Layer_1" data-name="Layer 1" xmlns="http://www.w3.org/2000/svg" viewBox="0 0 80 102.12">
  <defs>
    <style>
      .cls-1 {
        fill: #4f8f67;
      }
    </style>
  </defs>
  <path class="cls-1" d="M0,18.02c.14,27.82,5.48,63.85,29.92,81.54,4.65,3.37,13.53,3.47,18.17,0,24.49-18.32,31.75-52.71,31.92-81.54C80.05,8.6,71.68-.42,62,.02s-17.94,7.91-18,18c-.03,5.55-.45,11.01-.94,16.53,.13-1.5,.37-2.38,.03-.36-.19,1.17-.39,2.34-.61,3.5-.41,2.19-.89,4.37-1.44,6.53-.92,3.64-2.14,7.15-3.39,10.68s1.34-2.78,.42-.91c-.37,.74-.67,1.51-1.03,2.25-.66,1.38-1.35,2.74-2.09,4.07-1.2,2.16-2.54,4.21-3.92,6.25-.31,.45-.7,.87-.98,1.34,.1-.16,3.29-3.96,1.51-1.99-.53,.58-1.01,1.21-1.54,1.79-1.73,1.91-7.47,6.28-.11,.78h18.17c6.87,4.97,2.08,1.6,.29-.41-.47-.53-.89-1.12-1.38-1.64,1.6,1.71,2.66,3.63,.77,.87-1.37-2-2.6-4.09-3.72-6.25-.6-1.16-1.12-2.35-1.7-3.52-1.51-3.04,1.22,3.23,.52,1.23-.28-.79-.61-1.57-.9-2.36-1.31-3.61-2.38-7.3-3.25-11.04-.5-2.15-.94-4.33-1.31-6.51-.16-.93-.28-1.87-.45-2.8,.81,4.54-.03-.46-.11-1.15-.59-5.62-.81-11.26-.84-16.9C35.95,8.6,27.75-.42,18,.02S-.05,7.93,0,18.02H0Z"/>
</svg>