<?xml version="1.0" encoding="utf-8"?>
<!-- Generator: Adobe Illustrator 27.0.0, SVG Export Plug-In . SVG Version: 6.00 Build 0)  -->
<svg version="1.1" id="Layer_1" xmlns="http://www.w3.org/2000/svg" xmlns:xlink="http://www.w3.org/1999/xlink" x="0px" y="0px"
	 viewBox="0 0 272 451" style="enable-background:new 0 0 272 451;" xml:space="preserve">
<style type="text/css">
	.st0{fill:#8BC53F;}
</style>
<g>
	<g>
		<path class="st0" d="M72.61,214.78c-0.75-0.77-1.5-1.54-2.25-2.31c-0.61-0.63-1.23-1.36-2.12-1.59c-1.97-0.5-3.17,1.32-3.8,2.88
			c-1.55,3.85-1.71,8.12-1.65,12.22c0.05,3.25-0.18,7.82,3.1,9.71c1.85,1.07,3.73,0.02,4.83-1.57c0.95-1.38,1.23-3.12,1.22-4.77
			c-0.01-2.22-0.47-4.46-0.78-6.65c-0.36-2.57-0.73-5.14-1.09-7.71c-0.11-0.81-1.13-1.24-1.85-1.05c-0.87,0.23-1.16,1.05-1.05,1.85
			c0.58,4.08,1.37,8.19,1.71,12.3c0.11,1.38,0.2,3.07-0.6,4.28c-0.39,0.59-0.75,0.98-1.33,0.36c-0.5-0.53-0.72-1.24-0.87-1.93
			c-0.36-1.62-0.28-3.36-0.3-5.01c-0.03-1.98-0.01-3.97,0.23-5.93c0.22-1.83,0.58-3.91,1.44-5.55c0.11-0.22,0.23-0.36,0.38-0.54
			c-0.42-0.02-0.47,0.06-0.16,0.26c0.19,0.19,0.37,0.39,0.56,0.58c0.75,0.77,1.5,1.54,2.25,2.31
			C71.83,218.29,73.95,216.17,72.61,214.78L72.61,214.78z"/>
	</g>
</g>
<g>
	<g>
		<path class="st0" d="M82.07,219.42c-0.22,2.93-0.32,5.84-0.04,8.77c0.14,1.47,0.35,2.94,0.63,4.39c0.25,1.29,0.4,3.01,1.39,3.97
			c1.81,1.76,4.67,0.32,5.64-1.63c1.27-2.52,0.59-5.53-0.38-8.02c-1.2-3.09-2.59-6.12-3.89-9.17c-0.32-0.75-1.42-0.91-2.05-0.54
			c-0.77,0.45-0.86,1.3-0.54,2.05c1.16,2.72,2.39,5.43,3.48,8.18c0.49,1.22,0.98,2.54,1.06,3.87c0.06,0.94,0,2.24-0.84,2.84
			c-0.15,0.11-0.56,0.17-0.36,0.3c-0.22-0.13-0.32-1.25-0.38-1.54c-0.32-1.44-0.57-2.9-0.72-4.38c-0.31-3.04-0.21-6.05,0.01-9.09
			C85.21,217.5,82.21,217.51,82.07,219.42L82.07,219.42z"/>
	</g>
</g>
<g>
	<g>
		<path class="st0" d="M116.12,230.64c-0.21,3.17-0.63,6.41-0.54,9.59c0.07,2.42,0.6,5.1,2.6,6.69c1.18,0.94,2.83,1.48,4.09,0.34
			c0.88-0.8,1.41-2.12,1.62-3.27c0.45-2.44-0.22-4.88-0.9-7.21c-0.72-2.45-1.67-5.09-0.82-7.62c0.34-1-0.54-1.81-1.45-1.9
			c-0.89-0.08-1.79-0.17-2.68-0.25c-0.81-0.08-1.5,0.74-1.5,1.5c0,0.87,0.69,1.42,1.5,1.5c0.89,0.08,1.79,0.17,2.68,0.25
			c-0.48-0.63-0.96-1.27-1.45-1.9c-1.41,4.2,0.87,8.31,1.63,12.38c0.15,0.79,0.22,1.64,0.09,2.44c-0.06,0.41-0.18,0.83-0.36,1.21
			c-0.08,0.17-0.26,0.36-0.3,0.54c0.04-0.19,0.4,0.22,0.04-0.13c-0.62-0.61-1.11-1.02-1.39-1.9c-0.29-0.91-0.39-1.86-0.41-2.81
			c-0.07-3.15,0.34-6.33,0.54-9.47C119.25,228.71,116.25,228.72,116.12,230.64L116.12,230.64z"/>
	</g>
</g>
<g>
	<g>
		<path class="st0" d="M59.97,247.42c1.44,2.62,3.02,5.31,5.25,7.35c1.04,0.95,2.2,1.74,3.51,2.27c0.65,0.26,1.3,0.45,1.99,0.57
			c0.22,0.04,0.91,0.03,1.08,0.19c0.23,0.23,0.09,0.89,0.09,1.19c-0.25,8.25-0.55,16.5-0.83,24.76c-0.07,1.98-0.13,3.96-0.2,5.94
			c-0.03,0.99-0.05,1.98-0.1,2.97c-0.01,0.29,0.01,0.64-0.09,0.92c-0.19,0.51-0.13,0.44-0.65,0.38c-0.7-0.09-1.47-0.71-2.12-0.99
			c-0.77-0.33-1.56-0.52-2.39-0.65c-1.82-0.27-3.72-0.1-5.5-0.58c-2.93-0.78-4.66-3.57-5.28-6.38c-0.81-3.67,0.38-7.52,1.52-10.99
			c2.9-8.81,5.92-17.59,8.89-26.38c0.62-1.83-2.28-2.62-2.89-0.8c-2.96,8.79-5.99,17.56-8.89,26.38c-1.27,3.87-2.34,7.96-1.62,12.06
			c0.57,3.22,2.41,6.43,5.29,8.1c1.63,0.95,3.47,1.22,5.33,1.33c0.92,0.06,1.86,0.06,2.78,0.21c1.05,0.17,1.9,0.6,2.85,1.06
			c1.57,0.75,3.39,1.1,4.72-0.31c1.24-1.32,1.06-3.42,1.11-5.09c0.31-9.16,0.61-18.32,0.92-27.48c0.04-1.32,0.09-2.64,0.13-3.96
			c0.03-0.96,0.15-1.99-0.25-2.89c-0.89-2.02-3.19-1.64-4.91-2.38c-3.43-1.47-5.45-5.2-7.15-8.31
			C61.63,244.21,59.04,245.72,59.97,247.42L59.97,247.42z"/>
	</g>
</g>
<g>
	<g>
		<path class="st0" d="M86.5,257.67c4.24,2.41,8.85,4.18,13.64,5.1c3.81,0.73,8.24,0.85,11.5,3.2c3.98,2.88,3.8,8.83,2.99,13.13
			c-0.97,5.12-2.94,10.06-4.62,14.98c-0.88,2.58-1.76,5.15-2.63,7.73c-0.72,2.1-1.38,4.25-2.4,6.23c-1.91,3.7-5.5,6.24-9.8,5.15
			c-8.4-2.12-7.27-13.84-7.02-20.36c0.47-12.21,0.93-24.43,1.4-36.64c0.07-1.93-2.93-1.93-3,0c-0.45,11.88-0.91,23.77-1.36,35.65
			c-0.29,7.72-1.38,19.39,7.08,23.46c4.13,1.99,9.23,1.26,12.54-1.94c3.51-3.39,4.73-8.64,6.25-13.1
			c1.89-5.54,3.98-11.05,5.57-16.68c1.43-5.05,2.34-10.91,0.12-15.87c-2.17-4.87-7.27-6.39-12.11-7.21c-5.89-1-11.4-2.44-16.64-5.42
			C86.33,254.13,84.82,256.72,86.5,257.67L86.5,257.67z"/>
	</g>
</g>
<g>
	<g>
		<path class="st0" d="M62.4,232.68c0,4.77,0,9.53,0,14.3c0,1.93,3,1.93,3,0c0-4.77,0-9.53,0-14.3
			C65.4,230.75,62.4,230.75,62.4,232.68L62.4,232.68z"/>
	</g>
</g>
<g>
	<g>
		<path class="st0" d="M54.37,292.71c3.76,6.36,0.59,14.01-1.83,20.24c-1.38,3.55-2.68,7.14-3.07,10.95
			c-0.18,1.72-0.25,3.65,0.33,5.3c0.59,1.7,1.91,2.81,3.24,3.94c3.1,2.63,6.37,5.16,10.37,6.18c0.97,0.25,1.86-0.46,1.9-1.45
			c0.1-2.82-1-5.39-2.12-7.92c-1.04-2.35-2.28-4.91-1.6-7.52c-0.84,0.22-1.67,0.44-2.51,0.66c6.12,6.19,7.29,16.22,15.24,20.78
			c1.68,0.96,3.19-1.63,1.51-2.59c-3.68-2.11-5.79-5.84-7.7-9.49c-1.99-3.81-3.88-7.73-6.94-10.83c-0.79-0.79-2.22-0.43-2.51,0.66
			c-1.54,5.97,3.82,10.48,3.61,16.24c0.63-0.48,1.27-0.96,1.9-1.45c-2.22-0.57-4.17-1.66-6.02-2.99c-1.65-1.19-3.59-2.56-4.91-4.12
			c-1.46-1.72-0.99-4.73-0.62-6.78c0.4-2.21,1.1-4.36,1.88-6.46c2.88-7.82,7.17-16.86,2.42-24.88
			C55.97,289.53,53.38,291.04,54.37,292.71L54.37,292.71z"/>
	</g>
</g>
<g>
	<g>
		<path class="st0" d="M77.92,287.31c4.99,4.49,3.05,12.41,1.92,18.15c-1.71,8.64-2.4,17.47-1.97,26.27
			c0.21,4.28,0.55,8.69,1.44,12.9c0.39,1.84,1.15,3.53,2.49,4.87c1.37,1.37,3.11,2.4,4.73,3.45c6.98,4.49,14.43,8.24,22.18,11.21
			c4.05,1.56,8.52,3.75,12.79,1.85c2.08-0.93,3.87-1.74,6.19-1.78c2.35-0.04,4.66,0.41,6.96,0.88c0.92,0.19,1.93-0.42,1.9-1.45
			c-0.13-4.63-0.24-9.26-0.06-13.89c0.18-4.57,0.8-9.08,1.34-13.62c0.53-4.46,0.73-8.88,0.4-13.36c-0.33-4.54-1.02-9.05-1.65-13.56
			c-1.28-9.16-2.57-18.32-3.85-27.47c-0.62-4.44-1.3-8.89-1.62-13.37c-0.3-4.24-0.12-8.43,0.32-12.65
			c0.9-8.53,2.36-17.65-2.08-25.49c-0.95-1.68-3.54-0.17-2.59,1.51c3.84,6.78,2.67,14.89,1.85,22.28c-0.45,4.06-0.8,8.1-0.63,12.18
			c0.18,4.41,0.79,8.79,1.4,13.16c1.26,8.99,2.52,17.98,3.78,26.97c1.25,8.93,2.8,17.87,1.96,26.91c-0.46,4.94-1.29,9.83-1.57,14.78
			c-0.29,5.2-0.17,10.42-0.02,15.63c0.63-0.48,1.27-0.96,1.9-1.45c-3.76-0.76-7.74-1.52-11.53-0.47c-1.75,0.49-3.29,1.7-5.07,2.04
			c-1.97,0.38-4.1-0.62-5.93-1.26c-7.81-2.73-15.31-6.29-22.37-10.59c-3.15-1.92-7.31-3.8-8.25-7.67
			c-0.99-4.11-1.24-8.54-1.44-12.76c-0.41-8.71,0.32-17.38,2.01-25.93c1.32-6.66,2.88-15.23-2.83-20.37
			C78.61,283.9,76.48,286.02,77.92,287.31L77.92,287.31z"/>
	</g>
</g>
<g>
	<g>
		<path class="st0" d="M82.57,113.82c-0.93,5.61-2.61,11.1-5.12,16.21c-2.43,4.96-5.95,9.37-7.62,14.68
			c-1.69,5.36-1.81,11.07-2.07,16.64c-0.29,6.21-0.58,12.41-0.87,18.62c-0.29,6.21-0.58,12.41-0.87,18.62
			c-0.14,3.06-0.28,6.12-0.43,9.19c-0.07,1.49-0.16,2.98-0.21,4.47c-0.04,1.22,0.08,2.52,0.98,3.44c0.83,0.84,2.11,1.11,3.2,1.42
			c1.31,0.37,2.64,0.69,3.97,0.99c2.6,0.57,5.22,1.04,7.83,1.57c5.42,1.11,10.49,2.65,15.19,5.64c2.5,1.59,4.97,3.23,7.81,4.15
			c3.1,1,6.4,1.13,9.62,1.32c6.94,0.41,13.88,0.82,20.82,1.23c0.84,0.05,1.46-0.73,1.5-1.5c0.33-6.94-5.04-12.09-6.5-18.56
			c-1.49-6.62,1.65-13.32,3.75-19.46c1.26-3.7,2.3-7.48,2.44-11.41c0.07-1.93-2.93-1.93-3,0c-0.24,6.96-3.63,13.27-5.43,19.89
			c-0.85,3.13-1.38,6.42-1,9.66c0.4,3.39,1.78,6.42,3.34,9.43c1.7,3.28,3.58,6.63,3.4,10.45c0.5-0.5,1-1,1.5-1.5
			c-5.88-0.35-11.76-0.69-17.64-1.04c-2.87-0.17-5.78-0.22-8.63-0.63c-2.74-0.4-5.18-1.34-7.54-2.76c-2.29-1.37-4.46-2.94-6.87-4.09
			c-2.29-1.1-4.7-1.93-7.16-2.59c-5-1.34-10.15-2-15.16-3.28c-0.62-0.16-1.25-0.33-1.87-0.51c-0.4-0.12-1.2-0.19-1.46-0.53
			c-0.27-0.36-0.11-1.17-0.09-1.57c0.04-0.83,0.08-1.66,0.12-2.48c0.14-2.98,0.28-5.96,0.42-8.94c0.28-5.96,0.55-11.92,0.83-17.88
			c0.28-6.04,0.56-12.08,0.84-18.12c0.26-5.49,0.23-11.12,1.43-16.51c0.66-2.97,1.79-5.68,3.31-8.31c1.51-2.61,3.14-5.12,4.49-7.82
			c2.73-5.46,4.62-11.3,5.62-17.33C85.77,112.73,82.88,111.91,82.57,113.82L82.57,113.82z"/>
	</g>
</g>
<g>
	<g>
		<path class="st0" d="M124.96,162.22c3.63,9.41,7.43,18.75,11.38,28.04c1.78,4.18,3.47,8.43,5.53,12.48
			c1.63,3.2,3.61,6.38,6.28,8.82c2.57,2.35,5.8,3.89,9.32,3.89c4.59,0,8.85-2.34,13.24-3.37c8.75-2.06,18.08-1.36,26.45,1.9
			c5.01,1.95,9.57,4.91,14.15,7.68c4.88,2.96,9.84,5.78,14.87,8.48c1.7,0.91,3.22-1.67,1.51-2.59c-4.38-2.36-8.71-4.8-12.98-7.35
			c-4.06-2.42-8.03-5.01-12.26-7.12c-7.93-3.96-16.82-5.76-25.68-4.99c-4.41,0.39-8.6,1.45-12.77,2.89
			c-3.81,1.31-7.7,2.27-11.41,0.16c-2.95-1.68-5.07-4.53-6.77-7.41c-2.09-3.55-3.63-7.39-5.26-11.16
			c-4.44-10.3-8.67-20.68-12.71-31.14C127.17,159.64,124.26,160.41,124.96,162.22L124.96,162.22z"/>
	</g>
</g>
<g>
	<g>
		<path class="st0" d="M215.18,216.81c3.82,3.41,7.63,6.82,11.45,10.23c2.93,2.62,6.34,6.69,10.67,6.47
			c3.87-0.2,6.45-3.77,4.76-7.41c-1.66-3.58-5.52-5.4-8.5-7.67c-3.91-2.97-7.32-6.61-10.08-10.67c-0.08,0.61-0.16,1.21-0.23,1.82
			c1.48-1.47,3.79-1.14,5.55-0.36c2.17,0.95,3.89,2.76,5.75,4.17c3.15,2.39,7.63,3.91,11.15,1.28c1.49-1.11,2.55-2.92,1.46-4.64
			c-0.81-1.27-1.96-2.28-3.29-3c-2.77-1.49-5.97-1.86-9.01-2.44c-2.75-0.53-6.56-1.17-7.67-4.17c-0.13,0.49-0.26,0.97-0.39,1.46
			c3.9-3.43,10.1-1.58,14.72-1.24c2.48,0.18,5.31,0.26,7.61-0.83c2.16-1.02,3.27-3.58,1.92-5.7c-1.31-2.05-3.9-3.02-6.21-3.3
			c-3.35-0.41-6.73-0.4-10.09-0.55c-5.73-0.25-11.73-0.96-16.4-4.59c-1.92-1.49-3.56-3.48-4.3-5.83c-0.65-2.06-0.83-4.72-2.88-5.97
			c-2.67-1.62-5.41,0.74-7.34,2.43c-2.21,1.93-4.14,4.19-6.48,5.98c-4.7,3.6-10.75,4.31-16.49,4.47c-5.41,0.15-11.22,0.2-16.29-1.94
			c-6.31-2.66-8.77-8.94-11.33-14.81c-3.19-7.33-6.38-14.65-9.57-21.98c-0.77-1.77-3.35-0.24-2.59,1.51
			c2.76,6.33,5.52,12.67,8.27,19c2.29,5.26,4.26,11.26,8.46,15.36c3.92,3.83,9.34,5.24,14.66,5.69c5.47,0.47,11.26,0.39,16.66-0.64
			c2.67-0.51,5.29-1.37,7.66-2.71c2.54-1.45,4.64-3.5,6.72-5.52c1.02-0.99,4.9-5.47,6.33-4.06c0.65,0.64,0.8,2.01,1.01,2.84
			c0.3,1.2,0.7,2.35,1.27,3.45c2.31,4.41,6.92,7.27,11.55,8.74c6.05,1.91,12.53,1.46,18.78,1.9c1.54,0.11,3.12,0.18,4.53,0.89
			c0.65,0.33,1.96,1.03,1.63,1.94c-0.4,1.12-2.56,1.2-3.52,1.26c-1.44,0.09-2.89,0.02-4.32-0.11c-5.5-0.49-11.52-1.82-16.08,2.18
			c-0.37,0.32-0.56,0.99-0.39,1.46c1.59,4.3,5.92,5.54,10.03,6.31c3.59,0.68,8.71,0.96,10.59,4.65c-0.05-0.39-0.1-0.77-0.15-1.16
			c-0.56,1.82-2.85,2.22-4.5,1.96c-2.45-0.39-4.42-2.38-6.28-3.87c-3.51-2.83-9-5.47-12.85-1.65c-0.45,0.44-0.6,1.28-0.23,1.82
			c2.08,3.05,4.46,5.89,7.16,8.41c1.32,1.23,2.72,2.38,4.16,3.46c1.43,1.07,2.99,1.96,4.37,3.08c1.13,0.92,2.41,2.05,2.91,3.47
			c0.5,1.41-0.49,2.56-1.88,2.78c-1.68,0.26-3.23-0.69-4.49-1.7c-1.64-1.31-3.17-2.79-4.74-4.19c-3.69-3.3-7.39-6.6-11.08-9.9
			C215.87,213.41,213.74,215.52,215.18,216.81L215.18,216.81z"/>
	</g>
</g>
<g>
	<g>
		<path class="st0" d="M152.77,173.3c5.13,0.63,10.3,0.87,15.47,0.69c2.42-0.09,4.84-0.26,7.24-0.53c2.41-0.27,4.87-0.91,7.29-0.94
			c0.83-0.01,1.88,0.05,2.36,0.84c0.19,0.31,0.32,0.99,0.11,1.17c-0.3,0.27-1.27,0-1.64,0.01c-0.39,0.01-0.79,0.03-1.16,0.14
			c-0.91,0.27-1.74,0.96-2.07,1.86c-0.9,2.45,2.22,3.52,3.86,4.41c2.25,1.24,4.5,2.47,6.75,3.71c1.69,0.93,3.21-1.66,1.51-2.59
			c-1.83-1.01-3.66-2.01-5.49-3.02c-0.84-0.46-1.69-0.93-2.53-1.39c-0.12-0.07-1.21-0.75-1.27-0.7c-0.2,0.17,0.17,0.55,0.23,0.58
			c0.16,0.08,0.63,0.02,0.82,0.03c1.48,0.06,2.93-0.3,3.67-1.7c0.62-1.17,0.48-2.63-0.09-3.79c-1.62-3.29-5.74-2.57-8.68-2.11
			c-4.09,0.64-8.24,0.98-12.38,1.06c-4.68,0.1-9.37-0.16-14.01-0.73C150.85,170.06,150.87,173.07,152.77,173.3L152.77,173.3z"/>
	</g>
</g>
<g>
	<g>
		<path class="st0" d="M177.99,186.09c-0.37-1.87,2.21-1.83,3.23-1.23c1.66,0.99,2.32,3.02,2.85,4.76c1.19,3.95,1.9,8.04,1.94,12.17
			c0.04,4.09-0.59,8.18-2.1,11.99c-0.57,1.45-1.39,3.43-3.3,2.62c-1.7-0.72-2.34-2.82-2.88-4.41c-0.62-1.82-3.52-1.04-2.89,0.8
			c0.65,1.91,1.38,3.96,2.95,5.32c1.39,1.2,3.36,1.87,5.16,1.27c1.99-0.66,2.95-2.58,3.69-4.39c0.85-2.09,1.45-4.26,1.83-6.49
			c0.75-4.47,0.65-8.99-0.07-13.46c-0.36-2.23-0.88-4.45-1.56-6.61c-0.62-1.96-1.44-3.99-3.03-5.36c-1.65-1.43-4.02-2.2-6.1-1.24
			c-1.97,0.91-3.03,2.94-2.61,5.06C175.47,188.78,178.37,187.98,177.99,186.09L177.99,186.09z"/>
	</g>
</g>
<g>
	<g>
		<path class="st0" d="M124.14,111.46c8.03,0.35,15.16,5.01,20.24,11c5.72,6.75,8.98,15.23,11.83,23.5c0.73-0.56,1.47-1.13,2.2-1.69
			c-4.52-2.25-9.57-0.74-13.59,1.86c-2.13,1.38-4.08,3.02-6.18,4.45c-1.94,1.32-4.03,2.34-6.19,3.24c-2.07,0.86-4.18,1.67-6.16,2.74
			c-2.08,1.12-3.65,2.59-5.36,4.16c-0.26,0.24-0.69,0.73-1.09,0.68c-0.43-0.06-0.82-0.76-1.05-1.07c-0.8-1.08-1.53-2.22-2.22-3.37
			c-1.28-2.14-2.39-4.38-3.28-6.71c-2.05-5.32-3.09-10.95-3.07-16.65c0.01-1.93-2.99-1.93-3,0c-0.02,5.23,0.79,10.48,2.45,15.44
			c1.62,4.83,3.96,9.81,7.24,13.75c1.67,2,3.94,1.95,5.85,0.31c0.87-0.75,1.59-1.64,2.5-2.35c0.94-0.73,1.99-1.33,3.05-1.87
			c4.34-2.22,8.91-3.58,12.91-6.46c4.24-3.06,10.03-8.38,15.67-5.56c1.08,0.54,2.66-0.37,2.2-1.69
			c-4.55-13.19-10.73-27.4-24.01-33.86c-3.44-1.68-7.12-2.67-10.95-2.84C122.21,108.38,122.22,111.38,124.14,111.46L124.14,111.46z"
			/>
	</g>
</g>
<g>
	<g>
		<path class="st0" d="M113.68,65.98c7.62,7.65,14.15,16.27,19.46,25.67c0.3-0.73,0.6-1.47,0.9-2.2c-5.05,1.18-9.42,4.72-11.56,9.46
			c-0.43,0.95,0.05,2.33,1.3,2.26c5.52-0.34,11.09-0.48,16.59-1.02c2.44-0.24,3.68-1.69,3.76-4.11c0.08-2.47-0.4-5-1.1-7.35
			c-1.47-4.96-3.92-9.59-5.81-14.4c-2-5.09-3.72-10.29-5.16-15.56c-0.39-1.45-0.79-2.91-1.12-4.38c-0.15-0.65-0.53-1.91,0.4-1.97
			c0.83-0.06,1.81,0.5,2.64,0.64c1.03,0.18,2.04,0.11,2.92-0.48c0.51-0.34,0.94-1.06,0.69-1.69c-2.36-5.95-5.84-12.48-13.21-12.22
			c-4.1,0.14-8.26,1.58-12.21,2.58c-4.08,1.03-8.14,2.11-12.19,3.22c-7.33,2.02-14.74,3.93-19.82,10c-2.21,2.64-3.92,5.62-5.42,8.71
			c-1.61,3.33-3.14,6.75-4.4,10.22c-1.41,3.87-2.26,8.02-1.42,12.12c0.72,3.52,2.73,6.78,5.89,8.59c0.12-0.91,0.24-1.83,0.36-2.74
			c-2.57,0.72-4.12,3.08-4.37,5.66c-0.31,3.07,1.48,5.82,3.52,7.94c4.64,4.81,10.52,8.64,16.54,11.48c1.05,0.5,2.19-0.1,2.26-1.3
			c0.12-2.06-0.29-3.96-1.1-5.85c-0.43,0.75-0.86,1.5-1.3,2.26c1.53,0.05,2.92,0.44,4.25,1.2c0.7,0.4,1.64,0.17,2.05-0.54
			c0.61-1.05,1.21-2.1,1.82-3.15c-0.79,0.1-1.57,0.2-2.36,0.3c2.98,3.71,7.84,7.16,12.72,7.58c2.27,0.2,4.49-1.19,4.54-3.63
			c0.05-2.24-1.41-4.25-2.74-5.91c-6.31-7.83-7.75-18.95-3.14-27.97c2.45-4.8,6.28-8.74,11.02-11.3c1.7-0.92,0.19-3.51-1.51-2.59
			c-7.95,4.29-13.7,12.36-14.95,21.33c-0.66,4.73-0.14,9.63,1.53,14.1c0.83,2.23,1.9,4.38,3.26,6.34c1.16,1.68,3.13,3.39,3.5,5.49
			c0.44,2.53-4.66,0.18-5.6-0.29c-2.55-1.27-4.71-3.06-6.49-5.28c-0.62-0.77-1.91-0.46-2.36,0.3c-0.61,1.05-1.21,2.1-1.82,3.15
			c0.68-0.18,1.37-0.36,2.05-0.54c-1.79-1.02-3.7-1.55-5.76-1.61c-1.25-0.04-1.72,1.28-1.3,2.26c0.59,1.38,0.77,2.84,0.69,4.34
			c0.75-0.43,1.5-0.86,2.26-1.3c-4.99-2.35-9.65-5.35-13.79-9c-1.84-1.62-3.94-3.45-4.64-5.9c-0.5-1.75,0.09-4.15,2.03-4.7
			c1.23-0.34,1.49-2.1,0.36-2.74c-5.74-3.28-5.27-10.84-3.47-16.24c1.09-3.25,2.53-6.41,3.98-9.52c1.26-2.71,2.65-5.38,4.39-7.81
			c1.85-2.58,4.17-4.76,6.96-6.29c2.98-1.63,6.3-2.54,9.55-3.46c7.32-2.06,14.67-3.99,22.06-5.76c3.49-0.84,7.25-1.5,10.13,1.15
			c2.33,2.13,3.63,5.21,4.77,8.08c0.23-0.56,0.46-1.13,0.69-1.69c-0.53,0.36-1.17,0.06-1.75-0.1c-0.86-0.24-1.74-0.51-2.64-0.46
			c-2.04,0.11-3.25,1.84-3.23,3.78c0.02,2.34,0.97,4.81,1.58,7.04c0.72,2.6,1.51,5.17,2.36,7.73c1.64,4.89,3.58,9.66,5.65,14.39
			c1,2.27,1.98,4.56,2.7,6.94c0.66,2.17,1.4,4.85,1.04,7.14c-0.11,0.71-0.44,0.71-1.1,0.77c-0.74,0.06-1.48,0.09-2.21,0.14
			c-1.56,0.1-3.12,0.19-4.67,0.29c-3.12,0.19-6.23,0.38-9.35,0.57c0.43,0.75,0.86,1.5,1.3,2.26c1.85-4.09,5.39-7.06,9.76-8.08
			c0.96-0.22,1.36-1.39,0.9-2.2c-5.42-9.61-12.14-18.46-19.93-26.28C114.43,62.49,112.31,64.61,113.68,65.98L113.68,65.98z"/>
	</g>
</g>
<g>
	<g>
		<path class="st0" d="M125.76,96.86c-0.26,4.26-0.15,8.54,0.34,12.78c0.09,0.8,0.62,1.5,1.5,1.5c0.74,0,1.59-0.69,1.5-1.5
			c-0.49-4.24-0.6-8.52-0.34-12.78c0.05-0.81-0.73-1.5-1.5-1.5C126.41,95.36,125.81,96.04,125.76,96.86L125.76,96.86z"/>
	</g>
</g>
<g>
	<g>
		<path class="st0" d="M53.48,332.88c1.02,5.79-1.79,11.45-3.71,16.75c-2.02,5.57-3.34,11.37-4,17.26
			C45.09,373,45.5,379,45.77,385.11c0.13,3,0.15,6.02-0.33,8.99c-0.45,2.76-1.2,5.45-1.98,8.13c-1.73,5.95-3.66,12.04-2.93,18.31
			c0.22,1.89,3.22,1.92,3,0c-0.67-5.73,0.98-11.23,2.57-16.66c1.63-5.57,2.86-11.01,2.74-16.85c-0.13-6.2-0.79-12.3-0.24-18.51
			c0.53-5.94,1.83-11.82,3.82-17.44c2.18-6.17,5.13-12.28,3.95-18.99C56.03,330.19,53.14,330.99,53.48,332.88L53.48,332.88z"/>
	</g>
</g>
<g>
	<g>
		<path class="st0" d="M90.21,355.5c0.49,10.35,1.23,20.69,1.99,31.02c0.75,10.16,1.38,20.34,2.37,30.49
			c0.56,5.72,1.3,11.43,2.42,17.08c0.37,1.89,3.27,1.09,2.89-0.8c-1.97-9.95-2.69-20.07-3.44-30.16
			c-0.75-10.13-1.54-20.25-2.22-30.38c-0.39-5.74-0.73-11.49-1.01-17.24C93.12,353.57,90.12,353.56,90.21,355.5L90.21,355.5z"/>
	</g>
</g>
<g>
	<g>
		<path class="st0" d="M123.42,365.8c4.41,7.57,5.57,16.76,3.1,25.17c-1.37,4.66-3.52,9.03-4.51,13.8
			c-0.98,4.69-1.14,9.51-0.84,14.28c0.34,5.46,1.25,10.87,2.17,16.25c0.32,1.9,3.22,1.09,2.89-0.8c-1.65-9.63-3.37-19.7-1.24-29.39
			c1.05-4.75,3.24-9.13,4.55-13.8c1.18-4.23,1.54-8.71,1.05-13.08c-0.56-4.93-2.09-9.66-4.58-13.95
			C125.04,362.62,122.45,364.13,123.42,365.8L123.42,365.8z"/>
	</g>
</g>
<g>
	<g>
		<path class="st0" d="M87.69,353.7c1.14,5.04-0.02,10.14-1.48,14.98c-1.54,5.08-3.27,10.11-4.91,15.15
			c-3.31,10.15-6.62,20.29-9.93,30.44c-1.87,5.74-3.75,11.48-5.62,17.22c-0.6,1.84,2.3,2.63,2.89,0.8
			c3.39-10.38,6.77-20.76,10.16-31.15c3.39-10.4,6.94-20.76,10.16-31.22c1.7-5.52,2.92-11.29,1.62-17.03
			C90.16,351.02,87.27,351.81,87.69,353.7L87.69,353.7z"/>
	</g>
</g>
<g>
	<g>
		<path class="st0" d="M78.12,354.33c0.75,2.05,1.49,4.1,2.24,6.15c0.27,0.74,1.03,1.31,1.85,1.05c0.72-0.23,1.34-1.06,1.05-1.85
			c-0.75-2.05-1.49-4.1-2.24-6.15c-0.27-0.74-1.03-1.31-1.85-1.05C78.44,352.71,77.83,353.54,78.12,354.33L78.12,354.33z"/>
	</g>
</g>
<g>
	<g>
		<path class="st0" d="M81.28,62.92c-1.24,2.77-2.38,5.59-3.36,8.46c-0.96,2.81-1.5,5.59-0.74,8.52c0.68,2.61,1.95,5.16,3.13,7.59
			c1.2,2.47,2.63,4.81,4.54,6.79c1.34,1.39,3.46-0.73,2.12-2.12c-1.64-1.7-2.84-3.7-3.88-5.8c-1.08-2.19-2.2-4.48-2.9-6.83
			c-0.76-2.57-0.23-4.88,0.62-7.35c0.9-2.63,1.92-5.21,3.05-7.75C84.66,62.68,82.07,61.15,81.28,62.92L81.28,62.92z"/>
	</g>
</g>
<g>
	<g>
		<path class="st0" d="M84.96,70.63c-0.32,4.55-0.26,9.29,1.53,13.56c1.56,3.71,4.27,6.75,8.02,8.28c0.76,0.31,1.64-0.34,1.85-1.05
			c0.25-0.86-0.3-1.54-1.05-1.85c-7.29-2.98-7.82-12.28-7.35-18.95C88.1,68.71,85.1,68.72,84.96,70.63L84.96,70.63z"/>
	</g>
</g>
<g>
	<g>
		<path class="st0" d="M94.82,72.29c-1.04,4.49-0.23,9.33,2.31,13.19c0.44,0.68,1.33,0.96,2.05,0.54c0.67-0.39,0.99-1.37,0.54-2.05
			c-2.11-3.2-2.87-7.15-2.01-10.88c0.18-0.79-0.24-1.62-1.05-1.85C95.91,71.04,95.01,71.5,94.82,72.29L94.82,72.29z"/>
	</g>
</g>
<g>
	<g>
		<path class="st0" d="M119.1,54.03c3.9-0.84,7.87-1.26,11.86-1.29c1.93-0.01,1.93-3.01,0-3c-4.25,0.03-8.5,0.5-12.66,1.39
			c-0.79,0.17-1.25,1.1-1.05,1.85C117.48,53.8,118.31,54.2,119.1,54.03L119.1,54.03z"/>
	</g>
</g>
</svg>
