<?xml version="1.0" encoding="UTF-8"?>
<svg id="Layer_1" data-name="Layer 1" xmlns="http://www.w3.org/2000/svg" viewBox="0 0 353.47 140.81">
  <defs>
    <style>
      .cls-1 {
        fill: #8bc53f;
      }
    </style>
  </defs>
  <path class="cls-1" d="M329.91,25.7c.27-.07,.55-.12,.83-.16l-.4,.05c.72-.09,1.44-.09,2.16,0l-.4-.05c.4,.06,.8,.14,1.19,.26,.18,.05,.36,.12,.53,.18,.06,.02,.12,.05,.17,.07l-.19-.08c.03,.06,.28,.13,.34,.16,.7,.35,1.66,.21,2.05-.54,.36-.68,.21-1.68-.54-2.05-2.04-1.01-4.34-1.29-6.56-.74-.76,.19-1.29,1.09-1.05,1.85s1.03,1.25,1.85,1.05h0Z"/>
  <path class="cls-1" d="M13.33,125.6c-4.97-.68-13.75,1.74-13.31,8.2,.51,7.34,10.8,7.58,16.12,6.6,14.7-2.72,25.09-15.73,39.66-18.92,9.48-2.08,19.33-.13,28.85-2.01,8.3-1.64,15.91-5.77,22.93-10.37,7.46-4.89,14.48-10.42,21.94-15.32s15.63-9.53,23.88-13.46c18.42-8.76,38.26-14.58,58.54-16.86l-1.45-1.9c-2.67,8.51-8.61,16.45-17.14,19.71-1.24,.48-1.6,2.58,0,2.89,17.61,3.44,31.92-11.08,43.88-21.76,7.15-6.38,14.43-12.42,23.03-16.76s18.27-7.22,27.82-9.45c19.02-4.44,38.79-6.86,56.47-15.67,3.53-1.76,8.66-3.79,8.92-8.39,.24-4.17-3.62-7.36-7.15-8.74-9.39-3.67-20.36-3.99-30.23-2.68-21.63,2.86-41.43,13.63-60.29,23.96-4.88,2.67-9.7,5.5-14.68,7.96-2.59,1.29-5.41,2.47-8.34,2.65-2.61,.16-4.93-.63-7.17-1.92-3.86-2.23-7.34-5.22-11.92-5.77-3.61-.43-7.13,.75-10.18,2.61-7.19,4.39-12.18,11.5-18.82,16.58-8.39,6.42-18.94,6.91-29.04,8.02-18.23,2-34.61,9.7-50.42,18.6s-31.11,19.02-48.17,25.35c-8.12,3.01-16.63,5.08-25.3,5.34-4.7,.14-9.54-.71-14.17,.35-4.19,.96-7.28,3.69-8.78,7.7-1.3,3.46-1.17,7.46,1.32,10.34,1.26,1.46,3.38-.67,2.12-2.12-2.49-2.88-1.07-7.76,1.2-10.34,3.24-3.67,8.85-3.15,13.25-2.98,8.26,.33,16.46-.83,24.38-3.15,16.57-4.85,31.54-13.94,46.36-22.56,15-8.73,30.39-17.7,47.44-21.73,9.13-2.16,18.61-1.97,27.73-4.1,4.64-1.08,9.14-2.89,13.01-5.7,3.29-2.39,6.19-5.25,9.07-8.1,4.84-4.78,11.2-12.14,18.81-11.14,4.38,.57,7.75,3.91,11.53,5.89,4.45,2.33,9.14,2.21,13.78,.45,4.91-1.87,9.48-4.7,14.07-7.22,4.73-2.6,9.46-5.2,14.24-7.72,9.4-4.96,18.99-9.67,29.03-13.22,9.55-3.38,19.56-5.72,29.73-5.71,5.05,0,10.08,.59,14.98,1.83,2.2,.56,4.5,1.11,6.43,2.35,1.68,1.08,3.58,2.98,3.15,5.17s-3.1,3.28-4.88,4.24c-2.06,1.11-4.17,2.14-6.31,3.09-4.37,1.93-8.9,3.5-13.49,4.86-9.07,2.68-18.36,4.47-27.61,6.38-18.3,3.77-36.72,8.37-51.83,19.91-7.02,5.36-13.34,11.55-20.06,17.26-6.15,5.23-12.94,10.51-20.86,12.68-3.67,1.01-7.48,1.2-11.23,.47v2.89c9.57-3.66,16.23-12.21,19.24-21.81,.27-.85-.48-2.01-1.45-1.9-16.81,1.89-33.3,6.07-48.99,12.41-15.9,6.42-30.63,14.97-44.53,24.97-6.79,4.89-13.55,9.93-20.99,13.79-3.62,1.88-7.4,3.44-11.36,4.45-4.35,1.1-8.8,1.34-13.27,1.38-8.32,.07-16.48-.04-24.29,3.24-6.58,2.77-12.45,6.89-18.55,10.52s-13.52,7.61-21.06,6.42c-1.71-.27-3.89-.67-5.06-2.07-.98-1.17-1.1-2.72-.19-3.96,1.84-2.51,5.95-3.52,8.89-3.12,1.89,.26,2.7-2.63,.8-2.89h0Z"/>
</svg>