<?xml version="1.0" encoding="UTF-8"?>
<svg id="Layer_1" data-name="Layer 1" xmlns="http://www.w3.org/2000/svg" viewBox="0 0 300.17 96.02">
  <defs>
    <style>
      .cls-1 {
        fill: #8bc53f;
      }
    </style>
  </defs>
  <path class="cls-1" d="M293.69,3.17c.27-.07,.55-.12,.83-.16l-.4,.05c.72-.09,1.44-.09,2.16,0l-.4-.05c.4,.06,.8,.14,1.19,.26,.18,.05,.36,.12,.53,.18,.06,.02,.12,.05,.17,.07l-.19-.08c.03,.06,.28,.13,.34,.16,.7,.35,1.66,.21,2.05-.54,.36-.68,.21-1.68-.54-2.05-2.04-1.01-4.34-1.29-6.56-.74-.76,.19-1.29,1.09-1.05,1.85s1.03,1.25,1.85,1.05h0Z"/>
  <path class="cls-1" d="M166.12,51.29c-1.64,1.4-3.45,4.31-1.77,6.33,.96,1.15,2.39,1.14,3.75,1.02,1.71-.14,3.42-.35,5.12-.62,6.85-1.09,13.48-3.35,19.63-6.54,1.26-.65,.74-2.3-.36-2.74,.26,.1,.04-.1,.03-.47-.02-.45,.05-.92,.09-1.36,.09-.93,.2-1.87-.02-2.79-.44-1.82-1.93-3.11-3.62-3.76-4.32-1.65-7.96,1.1-11.11,3.76-3.22,2.71-6.74,4.28-10.89,4.97s-8.06,.59-12.08,.56c-7.63-.05-16.18-.26-22.57,4.59-1.79,1.36-3.12,3.15-4.79,4.63-2.03,1.8-4.62,1.93-7.2,2.11-5.73,.41-11.44,.99-17.14,1.74-2.67,.35-5.37,.67-7.97,1.37s-4.65,1.84-6.84,3.17c-2.4,1.46-4.81,2.1-7.61,2.23s-5.62,.06-8.42,.18c-5.57,.24-11.13,.83-16.64,1.74-5.15,.85-10.55,1.77-15.45,3.63-3.6,1.37-7.36,3.56-8.7,7.4-.32,.93-.4,1.87-.48,2.84-.11,1.29-.68,1.3-1.88,1.18-2.9-.29-5.8-.75-8.69-1.13-2.95-.38-5.9-.77-8.85-1.15-2.53-.33-5.37-1.08-7.9-.49C1.78,84.14,.06,85.82,0,87.93c-.07,2.62,2.38,3.57,4.43,4.44,9.31,3.92,19.88,4.7,29.68,2.29,2.45-.6,4.86-1.4,7.16-2.42,1.86-.82,3.78-2.03,4.78-3.87,.46-.84,.65-1.76,.68-2.71,.04-1.23-.03-1.74,1.32-1.9,1.11-.14,2.28,.05,3.39,.1,1.44,.07,2.89,.11,4.33,.13,11.45,.17,22.94-1.07,34.09-3.67,5.46-1.27,10.9-3.15,16.54-3.37,5.57-.22,10.91,1.53,16.36,2.36,11.45,1.76,22.73-1.74,33.72-4.55,11.2-2.86,22.38-5.8,33.43-9.2s21.33-7.46,32.02-11.15c5.27-1.81,10.61-3.44,16.07-4.57,4.54-.94,9.93-1.53,12.48-5.98,2.2-3.84,.69-8.37-3.59-9.74-1.87-.6-3.94-.57-5.87-.37-2.79,.28-5.57,.73-8.35,1.11-4.89,.66-10.49,.76-14.87,3.28-2.18,1.25-3.67,3.2-5.35,5-1.46,1.56-3.15,2.73-5.16,3.47-4.04,1.5-8.41,1.73-12.57,2.78-1.98,.5-3.96,1.2-5.72,2.25-2.03,1.21-3.59,2.93-5.19,4.63-3.48,3.68-7.8,5.41-12.73,6.24-2.22,.38-4.5,.64-6.75,.69-1.64,.04-3.86,0-5.09-1.27-1.38-1.42-.35-3.5,1.04-4.49,2.02-1.43,4.85-1.11,7.17-.88,1.92,.19,1.91-2.81,0-3-4.42-.44-9.98,.05-11.6,5.03-.62,1.91-.15,4.02,1.26,5.45,1.34,1.36,3.25,1.87,5.08,2.07,2.08,.23,4.19-.02,6.26-.25,2.34-.26,4.69-.61,6.96-1.24s4.4-1.48,6.34-2.71c2.05-1.3,3.66-3.01,5.31-4.76,1.51-1.59,3.11-2.94,5.14-3.81s4.04-1.29,6.11-1.68c4.07-.77,8.28-1.23,12.02-3.16,1.93-1,3.49-2.42,4.92-4.03,1.62-1.82,3.17-3.54,5.49-4.46s4.65-1.19,7.01-1.51c2.87-.39,5.73-.77,8.6-1.15,2.33-.31,4.69-.76,7.05-.73,1.67,.02,3.73,.29,4.7,1.84,1.1,1.74,.04,3.99-1.3,5.27-1.73,1.66-4.31,2.18-6.58,2.63-5.26,1.04-10.41,2.31-15.51,3.96s-10.4,3.64-15.56,5.54c-10.57,3.9-21.29,7.31-32.14,10.34-10.9,3.05-21.88,5.99-32.91,8.56-5.55,1.3-11.22,2.29-16.94,2-5.46-.28-10.71-2.01-16.12-2.64s-10.89,.47-16.21,1.83-10.72,2.62-16.19,3.46-11.22,1.35-16.86,1.51c-2.81,.08-5.62,.08-8.43-.02-2.23-.07-4.81-.6-6.98,.13-.87,.3-1.69,.83-2.16,1.64-.64,1.09-.35,2.19-.51,3.35-.25,1.86-2.44,2.93-3.96,3.6-4.53,1.99-9.56,3.05-14.48,3.32-4.99,.27-10.01-.26-14.82-1.64-2.28-.65-4.98-1.37-6.98-2.69-.73-.47-.49-1.24,.18-1.72,.98-.7,2.52-.45,3.63-.31,5.72,.67,11.43,1.49,17.14,2.23,1.39,.18,2.79,.37,4.18,.54,1.06,.13,2.13,.21,3.15-.18,2.4-.92,1.99-3.18,2.46-5.22,.86-3.73,5.17-5.58,8.46-6.61,5.09-1.61,10.46-2.58,15.72-3.37,5.57-.84,11.19-1.3,16.82-1.42,2.59-.06,5.21,.05,7.79-.27s4.84-1.19,7.07-2.56,4.43-2.43,7.02-3.03,5.34-.91,8.02-1.24c5.57-.7,11.16-1.15,16.76-1.61,2.45-.2,4.85-.62,6.86-2.13,1.83-1.37,3.15-3.29,4.9-4.74,2.8-2.33,6.39-3.43,9.94-3.93,7.91-1.11,15.96,.22,23.87-1.04,3.84-.61,7.58-1.93,10.69-4.3,2.74-2.09,6.62-6.67,10.47-4.25,1.53,.96,1.08,2.49,.96,4.04-.14,1.84,.33,3.38,2.14,4.1l-.36-2.74c-4.72,2.45-9.72,4.29-14.91,5.47-2.52,.57-5.08,.99-7.65,1.23-.57,.05-1.31,.23-1.88,.13-.39-.07-.18,.1-.17-.2,0-.77,.99-1.65,1.52-2.1,1.47-1.25-.66-3.37-2.12-2.12h0Z"/>
</svg>