<?xml version="1.0" encoding="UTF-8"?>
<svg id="Layer_1" data-name="Layer 1" xmlns="http://www.w3.org/2000/svg" viewBox="0 0 61.04 32.68">
  <defs>
    <style>
      .cls-1 {
        fill: #8bc53f;
      }
    </style>
  </defs>
  <path class="cls-1" d="M59.17,29.4c-5.59,1.32-10.72-2.39-14.94-5.56-4.47-3.36-8.96-6.22-14.58-7.14s-10.76-.37-16.05,.64c-2.63,.51-5.28,1.09-7.85,1.86-2.28,.69-4.59,1.87-5.45,4.24-.73,2.03-.18,4.45,1.8,5.52s4.94,.49,7.12,.33c4.62-.33,9.33-.93,13.65-2.69,2.09-.85,4.03-1.95,5.77-3.38,1.89-1.55,3.24-3.51,4.58-5.53,.64-.96,1.3-1.89,2.14-2.68s1.92-1.32,2.85-2.02c1.78-1.36,2.87-3.59,1.22-5.55-.91-1.08-2.35-1.75-3.52-2.48-1.46-.9-2.92-1.81-4.37-2.71C30.21,1.42,28.79,.24,27.19,.03c-1.4-.19-2.58,.44-3.65,1.28-4.52,3.52-7.27,8.82-7.89,14.47l2.56-1.06c-.82-.89-1.09-2.13-1.55-3.23-.48-1.16-1.1-2.18-2.12-2.93-1.82-1.36-4.36-1.57-6.42-.64-4.39,1.98-4.19,8.34-.29,10.7,1.66,1,3.16-1.59,1.51-2.59-2.37-1.44-1.87-5.35,1.05-5.67,3.75-.41,3.77,4.39,5.7,6.48,.97,1.05,2.43,.13,2.56-1.06,.47-4.27,2.54-8.3,5.68-11.22,.58-.54,1.45-1.49,2.29-1.57,1.03-.09,2.58,1.32,3.42,1.84,2.2,1.36,4.62,2.6,6.69,4.15,.68,.51,.64,.78,.04,1.33-.74,.68-1.67,1.12-2.48,1.71-1.67,1.22-2.83,2.92-3.96,4.62-2.25,3.39-5.06,5.85-8.9,7.31s-7.7,1.98-11.64,2.28c-.92,.07-1.84,.13-2.76,.18-.99,.05-2.48,.38-3.4-.06-1.75-.83,.13-3.04,1.11-3.57,1.93-1.05,4.37-1.4,6.49-1.89,2.33-.54,4.68-1.01,7.05-1.31,4.53-.57,9.21-.6,13.63,.67,9.79,2.81,16.81,14.69,28.07,12.03,1.88-.44,1.08-3.34-.8-2.89h0Z"/>
</svg>