<?xml version="1.0" encoding="UTF-8"?>
<svg id="Layer_1" data-name="Layer 1" xmlns="http://www.w3.org/2000/svg" viewBox="0 0 72.23 41.34">
  <defs>
    <style>
      .cls-1 {
        fill: #8bc53f;
      }
    </style>
  </defs>
  <path class="cls-1" d="M71.59,38.47c-11.38-8.47-26.48-7.95-38.6-14.8-3.33-1.88-6.01-4.64-9.27-6.6s-7.29-2.8-11.12-2.29c-1.78,.23-3.43,.84-5.15,1.3-1.27,.34-3.23,.85-4.17-.42-.89-1.2,.07-2.9,.77-3.93,1.08-1.58,2.67-2.73,4.22-3.82,1.86-1.31,3.82-2.49,5.86-3.51,1.91-.95,3.81-1.38,5.75-.27,3.84,2.18,4.5,7.05,5.1,11.01,.25,1.69,2.97,1.26,2.95-.4-.04-2.6,.61-5.13,1.93-7.38,.66-1.12,1.46-2.13,2.4-3.03,.44-.42,.96-.96,1.53-1.22,.64-.3,.97,0,1.4,.49,2.49,2.86,1.03,7.69-2.29,9.13-1.14,.49-.88,2.55,.36,2.74,1.6,.25,3.06,.05,4.58-.5,1.35-.49,2.66-1.23,4.1-1.44,.83-.12,1.98-.15,2.68,.41,.93,.73,.48,1.78-.18,2.51-1.82,2.04-5.08,3.09-7.62,3.84-1.48,.44-3,.73-4.55,.58s-2.89-.84-4.22-1.61c-2.24-1.31-4.56-2.8-7.27-2.65-2.87,.16-5.28,1.98-7.12,4.06s-3.55,4.54-2.35,7.29c1.03,2.35,3.59,3.64,6.05,3.86,5.55,.48,10.84-4.41,10.78-9.96-.02-1.93-3.02-1.93-3,0,.05,4.28-4.78,8.27-9,6.66-.89-.34-1.92-1.02-2.18-2-.33-1.27,.8-2.53,1.56-3.43,1.56-1.84,3.71-3.84,6.33-3.44s4.59,2.35,6.87,3.34c2.72,1.18,5.64,1.09,8.46,.32,2.56-.7,5.38-1.73,7.58-3.24,1.82-1.25,3.61-3.11,3.36-5.5-.29-2.7-2.81-4.07-5.32-4.08-1.28,0-2.51,.32-3.69,.78-1.56,.61-3.32,1.59-5.05,1.32l.36,2.74c5.28-2.28,6.82-10.42,2.43-14.31-3.24-2.86-6.83,.92-8.72,3.53-2.13,2.94-3.24,6.56-3.19,10.19l2.95-.4c-.61-4.05-1.4-8.42-4.53-11.35-1.36-1.27-3.04-2.21-4.89-2.48-2.08-.3-3.99,.38-5.83,1.3-2.04,1.02-3.99,2.2-5.86,3.51-1.72,1.21-3.43,2.46-4.73,4.13-2.09,2.68-3.33,7.02,.17,9.2s7.36-.49,10.83-.93c4.57-.58,8.55,1.19,12.05,3.98,3.13,2.49,6.26,4.71,9.94,6.33s7.28,2.72,11.03,3.74c8.29,2.27,16.99,4.05,24.02,9.29,1.55,1.15,3.05-1.45,1.51-2.59h0Z"/>
</svg>