<?xml version="1.0" encoding="UTF-8"?>
<svg id="Layer_1" data-name="Layer 1" xmlns="http://www.w3.org/2000/svg" viewBox="0 0 89.72 49.88">
  <defs>
    <style>
      .cls-1 {
        fill: #8bc53f;
      }
    </style>
  </defs>
  <path class="cls-1" d="M26.64,17.57c5.02,.73,9.9,2.27,14.38,4.68,2.1,1.13,4.18,2.4,5.92,4.05s2.86,3.89,4.4,5.78c2.81,3.45,7.08,5,11.07,6.62,4.19,1.69,7.92,4.11,11.79,6.42,4.32,2.57,8.94,4.81,14.08,4.77,1.93-.01,1.93-3.01,0-3-4.46,.03-8.46-1.94-12.22-4.15s-7.6-4.74-11.77-6.48-8.43-3.02-11.09-6.65c-1.36-1.85-2.45-3.82-4.13-5.42s-3.71-2.94-5.76-4.1c-4.9-2.76-10.3-4.59-15.86-5.4-1.89-.28-2.7,2.62-.8,2.89h0Z"/>
  <path class="cls-1" d="M28.92,18.02c-1.8-3.09-3.87-6.19-7.46-7.32s-7.57,.01-11.03,1.21c-3.19,1.1-6.68,2.36-8.89,5.06-1.15,1.41-2.09,3.21-1.17,5,.74,1.44,2.22,2.53,3.68,3.17,7.02,3.08,14.42-2.17,18.97-7.19,1.13-1.25,2.04-2.94,1.29-4.62-.69-1.56-2.41-2.17-3.89-2.75s-3.07-1.02-4.54-1.68c-.72-.32-1.45-.7-2.08-1.18-.45-.34-1.5-1.17-1.46-1.78,.04-.64,1.61-1.37,2.13-1.65,.84-.46,1.72-.8,2.65-1.03,1.81-.45,3.83-.4,5.51,.49,2.74,1.45,4.19,5.21,2.39,7.89l2.74,.36c-.47-1.94-1.18-4.45,.02-6.27,.89-1.35,2.54-1.83,3.55-.36,.6,.87,1.67,3.64,.85,4.47-.49,.49-1.63,.7-2.25,1-.88,.43-1.72,.93-2.52,1.49-3.02,2.15-5.41,5.07-6.86,8.48-.66,1.55-1.54,3.65-1.21,5.36,.45,2.32,2.8,2.42,4.59,1.6,3.7-1.7,6.03-5.92,5.58-9.95-.22-1.9-3.22-1.92-3,0s-.21,3.59-1.29,5.09c-.5,.7-1.14,1.31-1.87,1.77-.28,.18-.87,.31-1.08,.54-.14,.15-.18,.49,.01,.22,.09-.12,.13-.75,.16-.88,.85-3.63,2.99-6.9,5.9-9.22,1.51-1.2,3.17-1.88,4.89-2.69,1.95-.92,2.35-2.58,2.06-4.58-.46-3.21-2.27-7.19-6.19-6.6-2.02,.3-3.65,1.87-4.41,3.71-1,2.44-.42,5.14,.17,7.61,.32,1.33,2.06,1.38,2.74,.36,3.46-5.16-.75-12.06-6.42-13-3.2-.53-6.53,.35-9.21,2.14-1.32,.88-2.79,2.03-2.69,3.79,.09,1.57,1.37,2.96,2.54,3.88,2.42,1.92,5.49,2.53,8.29,3.7,.55,.23,1.57,.5,1.43,1.22s-1.14,1.45-1.65,1.93c-1.36,1.27-2.73,2.54-4.26,3.61-2.63,1.85-5.84,3.19-9.09,2.41-1.01-.24-3.77-1.26-3.51-2.68s2.32-2.73,3.46-3.37c1.62-.91,3.38-1.52,5.14-2.12,1.87-.64,3.82-1.27,5.81-1.4s3.92,.26,5.46,1.59,2.46,3.01,3.44,4.68,3.57,.16,2.59-1.51h0Z"/>
</svg>